<?xml version="1.0" standalone="no"?>
<!DOCTYPE svg PUBLIC "-//W3C//DTD SVG 20010904//EN"
 "http://www.w3.org/TR/2001/REC-SVG-20010904/DTD/svg10.dtd">
<svg version="1.0" xmlns="http://www.w3.org/2000/svg"
 width="250.000000pt" height="250.000000pt" viewBox="0 0 250.000000 250.000000"
 preserveAspectRatio="xMidYMid meet">

<g transform="translate(0.000000,250.000000) scale(0.100000,-0.100000)"
fill="#000000" stroke="none">
<path d="M65 2491 c-11 -5 -29 -19 -40 -31 -20 -22 -20 -36 -20 -1211 l0
-1189 28 -27 27 -28 1190 0 1190 0 27 28 28 27 0 1190 0 1190 -28 27 -27 28
-1178 2 c-647 1 -1186 -2 -1197 -6z m853 -558 c-50 -87 -158 -274 -239 -415
-82 -142 -149 -263 -149 -270 0 -7 18 -45 41 -83 118 -200 429 -744 429 -749
0 -3 -109 -6 -242 -6 l-243 1 -235 409 c-129 226 -236 416 -238 424 -2 8 55
115 126 238 71 123 175 304 232 403 56 99 107 186 113 193 7 9 70 12 253 12
l243 0 -91 -157z m1309 -264 l241 -420 -217 -377 c-119 -207 -228 -396 -241
-419 l-24 -43 -243 0 c-134 0 -243 2 -243 4 0 5 192 341 371 648 l109 186 -86
149 c-207 356 -394 682 -394 687 0 3 109 6 243 6 l242 0 242 -421z"/>
</g>
</svg>
